<svg width="581" height="658" viewBox="0 0 581 658" fill="none" xmlns="http://www.w3.org/2000/svg">
<g clip-path="url(#clip0_79:409)">
<path d="M253.72 467.301L201.023 416.905C233.271 359.99 225.893 310.776 180.86 279.059C168.753 270.382 154.755 264.411 139.901 261.588C125.048 258.765 109.718 259.163 95.0475 262.751C80.3767 266.339 66.7395 273.026 55.1449 282.317C43.5502 291.608 34.2947 303.266 28.0631 316.428C21.8314 329.59 18.783 343.92 19.1433 358.357C19.5037 372.794 23.2636 386.969 30.1449 399.833C37.0262 412.698 46.8527 423.922 58.8978 432.677C70.9429 441.432 84.8984 447.493 99.7317 450.412C125.492 455.627 155.386 451.625 184.804 432.218C202.168 448.986 219.786 465.967 237.31 482.887C247.836 492.954 254.197 494.44 260.017 488.406C265.359 482.796 263.515 476.671 253.72 467.301ZM120.53 442.467C113.52 442.441 106.537 441.616 99.7317 440.011C80.0172 435.419 62.4862 424.659 49.9411 409.449C37.3961 394.239 30.5613 375.458 30.5292 356.108C30.6047 339.108 35.9632 322.511 45.9279 308.413C55.8925 294.315 70.0161 283.35 86.5142 276.902C103.012 270.455 121.144 268.814 138.62 272.188C156.095 275.562 172.13 283.799 184.698 295.858C197.266 307.917 205.803 323.257 209.23 339.941C212.658 356.624 210.822 373.902 203.956 389.591C197.089 405.28 185.499 418.676 170.65 428.088C155.802 437.499 138.361 442.503 120.53 442.467Z" fill="black"/>
<path d="M96.2015 384.551L98.0778 396.68H161.683C160.579 399.658 159.936 402.774 159.775 405.928C160.824 412.872 158.28 417.633 150.902 417.39C144.192 417.178 141.584 412.478 143.142 406.05C143.348 404.684 143.454 403.306 143.46 401.926H112.834C113.28 404.958 114.711 407.687 113.788 409.112C111.626 412.326 108.318 417.057 105.488 417.026C103.477 416.6 101.611 415.695 100.065 414.396C98.5195 413.097 97.3435 411.446 96.6468 409.597C90.5725 380.366 85.4204 350.923 79.4733 321.662C78.111 318.167 75.5577 315.209 72.2223 313.263C67.3094 310.283 62.1878 307.629 56.8936 305.318C72.7948 305.045 82.8762 311.534 84.3391 321.814C85.2614 328.242 89.0777 327.878 93.8799 327.878C116.799 327.878 139.729 327.878 162.669 327.878C166.358 327.878 170.047 328.212 175.008 328.484L166.008 380.033L96.2015 384.551ZM148.135 349.165H131.216V360.535H145.4L148.135 349.165ZM111.976 379.093L125.587 377.213L124.665 365.933H111.212L111.976 379.093ZM110.004 360.505H124.665V349.286H108.764L110.004 360.505ZM131.312 333.215V342.888H147.658L149.375 333.215H131.312ZM108.032 342.827H125.46L124.951 333.275H107.142L108.032 342.827ZM131.375 365.933V377.274L143.396 376.667L145.909 365.933H131.375ZM152.301 360.535H164.545L166.517 349.346C151.506 347.679 151.284 347.679 152.238 360.535H152.301ZM94.3887 366.418C93.2438 379.79 94.2297 380.791 105.329 377.577C105.997 364.69 105.647 364.326 94.3251 366.418H94.3887ZM103.452 348.952H89.841L91.5901 360.323H104.311C104.311 358.019 104.311 356.381 104.311 354.774C104.311 353.167 103.707 351.56 103.389 348.952H103.452ZM154.178 342.888C168.68 344.222 168.902 344.04 167.694 332.821C161.079 333.366 151.57 329.152 154.114 342.736L154.178 342.888ZM101.258 333.397H87.8057C88.0283 344.374 89.1095 345.01 102.339 342.069L101.258 333.397ZM164.641 368.905C150.011 363.992 149.248 364.659 151.57 379.457L164.641 368.905Z" fill="black"/>
<path d="M148.135 349.165L145.4 360.536H131.216V349.165H148.135Z" fill="white"/>
<path d="M111.976 379.093L111.212 365.872H124.76L125.683 377.152L111.976 379.093Z" fill="white"/>
<path d="M110.004 360.505L108.668 349.286H124.569V360.505H110.004Z" fill="white"/>
<path d="M108.032 366.509H122.312L120.944 374.12H108.032V366.509Z" fill="white"/>
<path d="M89.4914 374.029L88.9507 366.479H103.039L103.453 374.029H89.4914Z" fill="white"/>
<path d="M131.312 365.872H145.845L143.333 376.606L131.312 377.213V365.872Z" fill="white"/>
<path d="M152.238 360.536C151.284 347.8 151.506 347.618 166.453 349.346L164.482 360.536H152.238Z" fill="white"/>
<path d="M94.3253 366.418C105.647 364.326 105.997 364.69 105.265 377.577C94.1663 380.791 93.1804 379.79 94.3253 366.418Z" fill="white"/>
<path d="M103.389 348.952C103.707 351.56 103.993 353.167 104.12 354.774C104.247 356.381 104.12 358.019 104.12 360.323H91.3992L89.6501 348.952H103.389Z" fill="white"/>
<path d="M126.001 373.938C123.965 363.204 131.502 366.539 136.654 365.994C137.64 374.969 137.449 374.969 126.001 373.938Z" fill="white"/>
<path d="M84.1482 366.448L84.9751 373.301C74.512 375.606 73.6851 375.121 73.5261 366.448H84.1482Z" fill="white"/>
<path d="M164.641 368.905L151.57 379.457C149.375 364.75 150.011 364.083 164.641 368.905Z" fill="white"/>
<path d="M-160 0V33.1123H99.7317V52.7916C135.503 39.7204 173.495 33.0491 211.804 33.1123C382.011 33.1123 520.861 166.774 520.671 330.273C520.671 492.135 380.739 624.857 210.754 624.888C172.805 624.972 135.166 618.372 99.7317 605.421V658.121H581V0.121293L-160 0Z" fill="white"/>
<path d="M211.804 33.1123C173.496 33.0491 135.503 39.7204 99.7317 52.7916V76.14C102.371 77.5651 104.375 80.84 107.523 85.449C122.057 106.675 114.456 124.868 106.156 144.608C104.279 149.035 102.689 155.373 104.597 159.194C117.319 184.483 130.834 209.317 144.128 234.303L148.326 231.907C144.128 222.81 139.962 213.714 134.396 201.372C140.343 203.252 142.919 203.283 143.937 204.405C154.623 218.686 167.567 232.059 174.913 247.796C185.471 270.326 202.74 280.939 226.688 284.941C256.492 289.388 284.451 301.531 307.53 320.055C316.053 326.938 328.774 329.152 339.332 333.821C343.053 335.519 348.873 339.188 348.619 341.523C347.709 351.111 345.671 360.57 342.544 369.723C340.095 376.94 334.085 383.186 332.24 390.464C324.576 420.786 343.021 443.165 360.258 464.33C373.488 480.552 377.782 485.828 366.428 503.749C351.958 526.612 334.466 547.747 320.632 570.914C309.724 589.107 293.441 595.839 273.692 599.932C215.565 612.141 154.911 607.083 99.8907 585.438V605.421C135.317 618.414 172.956 625.054 210.913 625.009C381.025 625.009 520.671 492.257 520.83 330.395C520.861 166.774 382.011 33.2032 211.804 33.1123ZM471.663 352.864C470.327 343.221 467.051 335.246 454.648 334.519C451.516 333.931 448.701 332.31 446.698 329.94C433.595 315.688 418.743 306.743 397.913 313.839C397.191 314.103 396.417 314.21 395.647 314.153C394.877 314.095 394.129 313.874 393.46 313.505C378.831 298.768 368.018 310.655 356.283 317.993C351.988 320.929 347.371 323.41 342.512 325.392C326.198 331.304 316.689 326.301 314.24 309.866C312.427 297.737 309.788 288.186 293.123 290.248C284.123 291.37 281.006 285.548 283.264 277.391C285.042 272.641 286.372 267.75 287.24 262.775C287.462 259.925 285.459 254.952 283.392 254.346C281.566 253.9 279.655 253.87 277.815 254.26C275.975 254.65 274.257 255.448 272.801 256.59C264.119 267.324 254.451 275.936 239.504 269.477C228.119 264.565 222.235 240.913 228.246 227.025C233.493 214.896 241.444 206.406 257.536 211.227C261.531 211.834 265.624 211.128 269.144 209.226C286.953 200.887 294.745 202.676 306.862 218.323C310.36 222.841 314.335 226.995 318.12 231.331L322.509 228.875C319.328 221.355 316.148 213.714 312.968 206.284C309.406 197.673 307.816 190.305 319.328 184.786C323.336 182.875 326.579 175.507 326.643 170.595C326.897 150.127 336.915 136.967 358 131.57C359.241 131.266 360.099 129.568 360.195 129.447L334.085 109.434H353.484C351.735 103.703 351.767 97.002 348.841 95.4555C336.08 88.854 322.862 83.0895 309.279 78.2019C298.72 74.351 287.494 72.1374 275.536 68.8626L289.466 104.825L235.242 77.3226L258.999 56.0968C443.708 85.1458 521.052 254.71 496.755 368.419C482.221 372.543 473.762 367.722 471.663 352.864Z" fill="black"/>
</g>
<defs>
<clipPath id="clip0_79:409">
<rect width="741" height="658" fill="white" transform="translate(-160)"/>
</clipPath>
</defs>
</svg>
