<svg width="33" height="34" viewBox="0 0 33 34" fill="none" xmlns="http://www.w3.org/2000/svg">
<path d="M29.9826 14.2255H28.875V14.1667H16.5V19.8333H24.2708C23.1371 23.1321 20.0908 25.5 16.5 25.5C11.9439 25.5 8.25 21.6941 8.25 17C8.25 12.3059 11.9439 8.50001 16.5 8.50001C18.6031 8.50001 20.5164 9.31743 21.9732 10.6526L25.8624 6.64559C23.4066 4.28755 20.1218 2.83334 16.5 2.83334C8.90656 2.83334 2.75 9.17647 2.75 17C2.75 24.8236 8.90656 31.1667 16.5 31.1667C24.0934 31.1667 30.25 24.8236 30.25 17C30.25 16.0501 30.1551 15.1229 29.9826 14.2255Z" fill="#FFC107"/>
<path d="M4.33533 10.4061L8.85289 13.8196C10.0753 10.7015 13.0356 8.50001 16.5 8.50001C18.603 8.50001 20.5163 9.31743 21.9731 10.6526L25.8623 6.64559C23.4066 4.28755 20.1217 2.83334 16.5 2.83334C11.2186 2.83334 6.63845 5.90539 4.33533 10.4061Z" fill="#FF3D00"/>
<path d="M16.5 31.1667C20.0516 31.1667 23.2787 29.7663 25.7187 27.489L21.463 23.7787C20.0362 24.8968 18.2926 25.5015 16.5 25.5C12.9236 25.5 9.88691 23.1505 8.74291 19.8716L4.25903 23.431C6.53466 28.0188 11.156 31.1667 16.5 31.1667Z" fill="#4CAF50"/>
<path d="M29.9826 14.2254H28.875V14.1667H16.5V19.8333H24.2708C23.7285 21.4033 22.7517 22.7752 21.461 23.7794L21.4631 23.778L25.7187 27.4883C25.4176 27.7702 30.25 24.0833 30.25 17C30.25 16.0501 30.1551 15.1229 29.9826 14.2254Z" fill="#1976D2"/>
</svg>
