<svg width="22" height="24" viewBox="0 0 22 24" fill="none" xmlns="http://www.w3.org/2000/svg">
<path fill-rule="evenodd" clip-rule="evenodd" d="M11 11.25C11.1989 11.25 11.3897 11.329 11.5303 11.4697C11.671 11.6103 11.75 11.8011 11.75 12V14.25H14C14.1989 14.25 14.3897 14.329 14.5303 14.4697C14.671 14.6103 14.75 14.8011 14.75 15C14.75 15.1989 14.671 15.3897 14.5303 15.5303C14.3897 15.671 14.1989 15.75 14 15.75H11.75V18C11.75 18.1989 11.671 18.3897 11.5303 18.5303C11.3897 18.671 11.1989 18.75 11 18.75C10.8011 18.75 10.6103 18.671 10.4697 18.5303C10.329 18.3897 10.25 18.1989 10.25 18V15.75H8C7.80109 15.75 7.61032 15.671 7.46967 15.5303C7.32902 15.3897 7.25 15.1989 7.25 15C7.25 14.8011 7.32902 14.6103 7.46967 14.4697C7.61032 14.329 7.80109 14.25 8 14.25H10.25V12C10.25 11.8011 10.329 11.6103 10.4697 11.4697C10.6103 11.329 10.8011 11.25 11 11.25Z" fill="black"/>
<path d="M11 1.5C11.9946 1.5 12.9484 1.89509 13.6517 2.59835C14.3549 3.30161 14.75 4.25544 14.75 5.25V6H7.25V5.25C7.25 4.25544 7.64509 3.30161 8.34835 2.59835C9.05161 1.89509 10.0054 1.5 11 1.5ZM16.25 6V5.25C16.25 3.85761 15.6969 2.52226 14.7123 1.53769C13.7277 0.553123 12.3924 0 11 0C9.60761 0 8.27226 0.553123 7.28769 1.53769C6.30312 2.52226 5.75 3.85761 5.75 5.25V6H0.5V21C0.5 21.7956 0.816071 22.5587 1.37868 23.1213C1.94129 23.6839 2.70435 24 3.5 24H18.5C19.2956 24 20.0587 23.6839 20.6213 23.1213C21.1839 22.5587 21.5 21.7956 21.5 21V6H16.25ZM2 7.5H20V21C20 21.3978 19.842 21.7794 19.5607 22.0607C19.2794 22.342 18.8978 22.5 18.5 22.5H3.5C3.10218 22.5 2.72064 22.342 2.43934 22.0607C2.15804 21.7794 2 21.3978 2 21V7.5Z" fill="black"/>
</svg>
